<svg width="84" height="104" viewBox="0 0 84 104" fill="none" xmlns="http://www.w3.org/2000/svg">
<rect width="84" height="104" fill="white"/>
<path d="M20.1983 56.8185C15.9047 61.4465 16.8439 71.4512 17.8502 75.8751C18.1857 77.4632 22.5466 81.0476 37.3059 82.681C52.0653 84.3145 62.4639 79.2781 65.8183 76.5557C66.4892 77.2363 68.8373 63.2841 64.1411 56.8185C60.3842 51.646 52.7362 49.6723 49.3818 49.332H33.9515C31.9389 49.332 25.5654 51.0334 20.1983 56.8185Z" fill="#BCBDBF"/>
<path d="M53.7425 34.6992C53.2058 43.4108 45.6919 46.0424 42.0021 46.2693C31.8047 45.7248 29.9262 36.0604 30.2617 31.2963C30.2617 29.4813 31.268 25.1028 35.2933 22.1082C39.3186 19.1136 44.5738 19.953 46.6983 20.747C49.27 21.7679 54.2792 25.9876 53.7425 34.6992Z" fill="#BCBDBF"/>
</svg>
