<svg width="962" height="158" viewBox="0 0 962 158" fill="none" xmlns="http://www.w3.org/2000/svg">
<path d="M2.57999 67.1202C-0.274642 66.645 -0.195347 70.0901 0.20113 71.872C5.15742 86.1277 15.1889 115.114 15.6647 117.015C16.1405 118.916 17.0524 118.599 17.4489 118.203L56.1053 61.7744C39.453 63.7543 5.43462 67.5954 2.57999 67.1202Z" fill="url(#paint0_linear_1617_16407)"/>
<path d="M39.4533 10.6917L3.17569 57.0226L59.0789 49.3008L39.4533 10.6917Z" fill="url(#paint1_linear_1617_16407)"/>
<path d="M98.3301 0L48.9688 7.12782L67.9996 45.7368L98.3301 0Z" fill="url(#paint2_linear_1617_16407)"/>
<path d="M76.3257 51.6767L111.414 2.96992L136.987 61.7744L76.3257 51.6767Z" fill="url(#paint3_linear_1617_16407)"/>
<path d="M123.903 2.96992C121.524 2.49474 121.722 3.56391 122.119 4.15789C129.652 20.1955 145.075 52.8647 146.502 55.2406C147.929 57.6165 147.89 56.2306 147.691 55.2406L165.533 15.4436C152.647 11.4837 126.282 3.44511 123.903 2.96992Z" fill="url(#paint4_linear_1617_16407)"/>
<path d="M153.639 62.3684C152.687 63.3188 154.035 63.5564 154.828 63.5564L203 62.9624L174.454 19.6015C167.912 33.4612 154.59 61.418 153.639 62.3684Z" fill="url(#paint5_linear_1617_16407)"/>
<path d="M25.7749 125.331C25.2991 126.281 24.7837 124.143 24.5854 122.955L50.7529 86.7218C51.7044 85.2962 51.9423 86.5238 51.9423 87.3158L42.4269 122.955C42.4269 124.38 40.4445 125.133 39.4533 125.331H25.7749Z" fill="url(#paint6_linear_1617_16407)"/>
<path d="M85.8411 130.677L67.9996 71.872L50.7529 122.955C49.3256 124.856 50.1582 128.103 50.7529 129.489L84.057 158L84.6517 144.932L85.8411 130.677Z" fill="url(#paint7_linear_1617_16407)"/>
<path d="M135.797 71.872L75.1362 61.7744L91.7883 117.015L135.797 71.872Z" fill="url(#paint8_linear_1617_16407)"/>
<path d="M146.502 81.3759L103.088 124.737H165.533L146.502 81.3759Z" fill="url(#paint9_linear_1617_16407)"/>
<path d="M203 74.8421H153.639L174.454 120.579L203 74.8421Z" fill="url(#paint10_linear_1617_16407)"/>
<path d="M325.18 108.317C321.181 112.202 316.439 115.249 310.955 117.458C305.471 119.628 299.491 120.714 293.017 120.714C286.504 120.714 280.486 119.609 274.964 117.4C269.441 115.153 264.643 112.03 260.567 108.031C256.492 103.994 253.331 99.2715 251.084 93.8633C248.837 88.4551 247.713 82.5518 247.713 76.1533C247.713 69.7549 248.837 63.8516 251.084 58.4434C253.331 53.0352 256.492 48.3315 260.567 44.3325C264.643 40.2954 269.441 37.1724 274.964 34.9634C280.486 32.7163 286.504 31.5928 293.017 31.5928C299.453 31.5928 305.395 32.6973 310.841 34.9062C316.287 37.0771 321.029 40.124 325.066 44.0469L311.012 58.1577C308.841 55.3394 306.175 53.1304 303.014 51.5308C299.853 49.9312 296.406 49.1313 292.674 49.1313C289.208 49.1313 285.99 49.8169 283.019 51.188C280.048 52.5591 277.458 54.4634 275.25 56.9009C273.041 59.3384 271.327 62.1948 270.108 65.4702C268.889 68.7456 268.28 72.2876 268.28 76.0962C268.28 79.981 268.889 83.561 270.108 86.8364C271.327 90.0737 273.041 92.9302 275.25 95.4058C277.458 97.8433 280.048 99.7476 283.019 101.119C285.99 102.49 289.208 103.175 292.674 103.175C296.406 103.175 299.834 102.375 302.957 100.776C306.118 99.1763 308.803 96.9673 311.012 94.1489L325.18 108.317ZM378.139 120.714C371.588 120.714 365.551 119.609 360.029 117.4C354.544 115.153 349.765 112.03 345.689 108.031C341.614 103.994 338.453 99.2715 336.206 93.8633C333.959 88.4551 332.835 82.5518 332.835 76.1533C332.835 69.7549 333.959 63.8516 336.206 58.4434C338.453 53.0352 341.614 48.3315 345.689 44.3325C349.765 40.2954 354.544 37.1724 360.029 34.9634C365.551 32.7163 371.607 31.5928 378.196 31.5928C384.708 31.5928 390.707 32.7163 396.191 34.9634C401.714 37.1724 406.494 40.2954 410.531 44.3325C414.568 48.3315 417.71 53.0352 419.957 58.4434C422.204 63.8516 423.328 69.7549 423.328 76.1533C423.328 82.5518 422.204 88.4551 419.957 93.8633C417.71 99.2715 414.568 103.994 410.531 108.031C406.494 112.03 401.714 115.153 396.191 117.4C390.707 119.609 384.689 120.714 378.139 120.714ZM378.139 103.175C381.643 103.175 384.88 102.49 387.851 101.119C390.859 99.7476 393.468 97.8433 395.677 95.4058C397.924 92.9302 399.657 90.0547 400.876 86.7793C402.133 83.5039 402.761 79.9619 402.761 76.1533C402.761 72.3447 402.133 68.8027 400.876 65.5273C399.657 62.252 397.924 59.3955 395.677 56.958C393.468 54.4824 390.859 52.5591 387.851 51.188C384.88 49.8169 381.643 49.1313 378.139 49.1313C374.635 49.1313 371.359 49.8169 368.312 51.188C365.304 52.5591 362.676 54.4824 360.429 56.958C358.22 59.3955 356.487 62.252 355.23 65.5273C354.011 68.8027 353.402 72.3447 353.402 76.1533C353.402 79.9619 354.011 83.5039 355.23 86.7793C356.487 90.0547 358.22 92.9302 360.429 95.4058C362.676 97.8433 365.304 99.7476 368.312 101.119C371.359 102.49 374.635 103.175 378.139 103.175ZM433.382 119V33.3066H462.575C472.896 33.3066 481.847 35.0776 489.426 38.6196C497.005 42.1235 502.889 47.0937 507.079 53.5303C511.268 59.9287 513.363 67.4697 513.363 76.1533C513.363 84.7988 511.268 92.3398 507.079 98.7764C502.889 105.213 497.005 110.202 489.426 113.744C481.847 117.248 472.896 119 462.575 119H433.382ZM453.492 101.461H463.261C469.583 101.461 474.934 100.49 479.314 98.5479C483.694 96.5674 487.026 93.6919 489.312 89.9214C491.635 86.1509 492.796 81.5615 492.796 76.1533C492.796 70.7451 491.635 66.1558 489.312 62.3853C487.026 58.6147 483.694 55.7583 479.314 53.8159C474.934 51.8354 469.583 50.8452 463.261 50.8452H453.492V101.461ZM543.527 33.3066H523.417V119H543.527V33.3066ZM556.209 119V33.3066H586.488C593.762 33.3066 600.046 34.5063 605.34 36.9058C610.672 39.3052 614.767 42.7139 617.623 47.1318C620.518 51.5498 621.965 56.8057 621.965 62.8994C621.965 68.9932 620.518 74.2681 617.623 78.7241C614.767 83.1802 610.71 86.627 605.455 89.0645C600.199 91.4639 593.953 92.6636 586.716 92.6636H576.319V119H556.209ZM576.319 75.125H584.545C589.992 75.125 594.162 74.0776 597.057 71.9829C599.951 69.8501 601.398 66.8223 601.398 62.8994C601.398 59.0527 599.951 56.082 597.057 53.9873C594.162 51.8926 589.992 50.8452 584.545 50.8452H576.319V75.125ZM691.034 119H633.905V33.3066H654.014V101.461H691.034V119ZM714.856 119H693.776L727.596 33.3066H748.734L782.497 119H761.417L755.132 102.147H721.141L714.856 119ZM727.596 84.6084H748.734L738.165 56.501L727.596 84.6084ZM826.258 119H806.148V82.3804L773.985 33.3066H798.436L816.089 64.5562L833.97 33.3066H858.421L826.258 82.4375V119Z" fill="#2E2E2E"/>
<defs>
<linearGradient id="paint0_linear_1617_16407" x1="0" y1="79" x2="475.093" y2="211.761" gradientUnits="userSpaceOnUse">
<stop stop-color="#00C6FB"/>
<stop offset="1" stop-color="#005BEA"/>
</linearGradient>
<linearGradient id="paint1_linear_1617_16407" x1="0" y1="79" x2="475.093" y2="211.761" gradientUnits="userSpaceOnUse">
<stop stop-color="#00C6FB"/>
<stop offset="1" stop-color="#005BEA"/>
</linearGradient>
<linearGradient id="paint2_linear_1617_16407" x1="0" y1="79" x2="475.093" y2="211.761" gradientUnits="userSpaceOnUse">
<stop stop-color="#00C6FB"/>
<stop offset="1" stop-color="#005BEA"/>
</linearGradient>
<linearGradient id="paint3_linear_1617_16407" x1="0" y1="79" x2="475.093" y2="211.761" gradientUnits="userSpaceOnUse">
<stop stop-color="#00C6FB"/>
<stop offset="1" stop-color="#005BEA"/>
</linearGradient>
<linearGradient id="paint4_linear_1617_16407" x1="0" y1="79" x2="475.093" y2="211.761" gradientUnits="userSpaceOnUse">
<stop stop-color="#00C6FB"/>
<stop offset="1" stop-color="#005BEA"/>
</linearGradient>
<linearGradient id="paint5_linear_1617_16407" x1="0" y1="79" x2="475.093" y2="211.761" gradientUnits="userSpaceOnUse">
<stop stop-color="#00C6FB"/>
<stop offset="1" stop-color="#005BEA"/>
</linearGradient>
<linearGradient id="paint6_linear_1617_16407" x1="0" y1="79" x2="475.093" y2="211.761" gradientUnits="userSpaceOnUse">
<stop stop-color="#00C6FB"/>
<stop offset="1" stop-color="#005BEA"/>
</linearGradient>
<linearGradient id="paint7_linear_1617_16407" x1="0" y1="79" x2="475.093" y2="211.761" gradientUnits="userSpaceOnUse">
<stop stop-color="#00C6FB"/>
<stop offset="1" stop-color="#005BEA"/>
</linearGradient>
<linearGradient id="paint8_linear_1617_16407" x1="0" y1="79" x2="475.093" y2="211.761" gradientUnits="userSpaceOnUse">
<stop stop-color="#00C6FB"/>
<stop offset="1" stop-color="#005BEA"/>
</linearGradient>
<linearGradient id="paint9_linear_1617_16407" x1="0" y1="79" x2="475.093" y2="211.761" gradientUnits="userSpaceOnUse">
<stop stop-color="#00C6FB"/>
<stop offset="1" stop-color="#005BEA"/>
</linearGradient>
<linearGradient id="paint10_linear_1617_16407" x1="0" y1="79" x2="475.093" y2="211.761" gradientUnits="userSpaceOnUse">
<stop stop-color="#00C6FB"/>
<stop offset="1" stop-color="#005BEA"/>
</linearGradient>
</defs>
</svg>
